<?xml version="1.0" encoding="utf-8"?>
<!-- Generator: Adobe Illustrator 19.0.0, SVG Export Plug-In . SVG Version: 6.00 Build 0)  -->
<svg version="1.1" id="Layer_1" xmlns="http://www.w3.org/2000/svg" xmlns:xlink="http://www.w3.org/1999/xlink" x="0px" y="0px"
	 viewBox="0 0 200 200" style="enable-background:new 0 0 200 200;" xml:space="preserve">
<style type="text/css">
	.st0{fill:#103F3A;}
	.st1{fill:#F9F9F9;}
</style>
<circle id="XMLID_1_" class="st0" cx="99.7" cy="100.3" r="99.7"/>
<g id="XMLID_507_">
	<g id="XMLID_2_">
		<g id="XMLID_5_">
			
				<rect id="XMLID_40_" x="125.2" y="55.7" transform="matrix(0.6613 -0.7501 0.7501 0.6613 7.2465 128.5874)" class="st1" width="41.6" height="1"/>
			<polygon id="XMLID_39_" class="st1" points="132.7,72.2 137.2,76.2 129.3,85 128.7,84.5 135.9,76.2 132.1,72.8 			"/>
			<polygon id="XMLID_38_" class="st1" points="134.7,76.3 128,83.9 120.8,77.6 127.5,70 			"/>
			<polygon id="XMLID_37_" class="st1" points="131.9,71.5 132.7,72.2 132.1,72.8 131.3,72.2 			"/>
			<polygon id="XMLID_36_" class="st1" points="130,88.9 109.4,112.2 109.2,112 129.8,88.7 			"/>
			<polygon id="XMLID_35_" class="st1" points="115.9,76.4 129.8,88.7 109.2,112 95.3,99.8 			"/>
			<polygon id="XMLID_34_" points="128.2,86.3 128.2,86.4 118.4,77.7 			"/>
			<polygon id="XMLID_33_" class="st1" points="127.4,67.5 131.9,71.5 131.3,72.2 127.5,68.8 120.2,77 119.5,76.4 			"/>
			<polygon id="XMLID_32_" class="st1" points="128.1,85.1 119.6,77.7 120.2,77 120.8,77.6 128,83.9 128.7,84.5 			"/>
			<polygon id="XMLID_31_" class="st1" points="135.9,76.2 128.7,84.5 128,83.9 134.7,76.3 127.5,70 120.8,77.6 120.2,77 120.2,77 
				127.5,68.8 131.3,72.2 132.1,72.8 			"/>
			<polygon id="XMLID_30_" class="st1" points="128.4,86.1 118.6,77.5 119.5,76.4 120.2,77 120.2,77 119.6,77.7 128.1,85.1 
				128.7,84.5 129.3,85 			"/>
			<polygon id="XMLID_29_" class="st1" points="118.6,77.5 128.4,86.1 128.2,86.3 118.4,77.7 			"/>
			<polygon id="XMLID_28_" class="st1" points="130.1,88.3 116.2,76 116.3,75.9 118.4,77.7 128.2,86.4 128.2,86.3 130.2,88.2 			"/>
			<polygon id="XMLID_27_" class="st1" points="116.2,76 130.1,88.3 129.8,88.7 115.9,76.4 			"/>
			<polygon id="XMLID_26_" class="st1" points="115.9,76.4 95.3,99.8 95,99.5 115.6,76.2 			"/>
			<polygon id="XMLID_25_" class="st1" points="130.2,88.2 128.2,86.3 128.4,86.1 131.5,88.8 109.5,113.7 108.5,112.8 108.8,112.4 
				109.5,113 130.8,88.9 130.1,88.3 			"/>
			<polygon id="XMLID_24_" class="st1" points="129.8,88.7 130.1,88.3 130.8,88.9 109.5,113 108.8,112.4 109.2,112 109.4,112.2 
				130,88.9 			"/>
			<polygon id="XMLID_23_" class="st1" points="95.3,99.8 109.2,112 108.8,112.4 94.9,100.2 			"/>
			<polygon id="XMLID_22_" class="st1" points="108.8,112.4 108.5,112.8 94.6,100.6 94.9,100.2 			"/>
			<polygon id="XMLID_21_" class="st1" points="94.3,99.6 115.6,75.5 116.2,76 115.9,76.4 115.6,76.2 95,99.5 95.3,99.8 94.9,100.2 
							"/>
			<polygon id="XMLID_20_" class="st1" points="94.6,100.6 93.6,99.6 115.5,74.7 118.6,77.5 118.4,77.7 116.3,75.9 116.2,76 
				115.6,75.5 94.3,99.6 94.9,100.2 			"/>
			
				<rect id="XMLID_19_" x="87.4" y="117.1" transform="matrix(0.663 -0.7486 0.7486 0.663 -61.8503 106.9492)" class="st1" width="1" height="10.1"/>
			
				<rect id="XMLID_18_" x="82.2" y="122.9" transform="matrix(0.663 -0.7486 0.7486 0.663 -67.9261 105.073)" class="st1" width="1" height="10.1"/>
			<polygon id="XMLID_17_" class="st1" points="82,136.5 81.3,137.3 73.7,130.6 74.4,129.8 			"/>
			
				<rect id="XMLID_16_" x="71.5" y="135.1" transform="matrix(0.663 -0.7486 0.7486 0.663 -80.6704 101.1373)" class="st1" width="1" height="10.1"/>
			<polygon id="XMLID_15_" class="st1" points="61.4,165 60.7,165.8 48,154.6 48.7,153.8 			"/>
			<polygon id="XMLID_14_" class="st1" points="60.7,165.8 55.8,171.3 43.1,160.1 48,154.6 			"/>
			<polygon id="XMLID_13_" class="st1" points="55.8,171.3 55.5,171.7 42.8,160.5 43.1,160.1 			"/>
			<polygon id="XMLID_12_" class="st1" points="129.3,85 132.7,88 65.4,164.3 48.9,149.8 116.2,73.5 119.5,76.4 118.6,77.5 
				115.5,74.7 93.6,99.6 94.6,100.6 76.2,121.5 65.4,133.7 50.8,150.2 64.7,162.5 79.3,145.9 90,133.7 108.5,112.8 109.5,113.7 
				131.5,88.8 128.4,86.1 			"/>
			<polygon id="XMLID_11_" class="st1" points="64.8,164.9 48.3,150.4 48.9,149.8 65.4,164.3 			"/>
			<path id="XMLID_10_" class="st1" d="M44.3,149.9l4.4,3.9l-0.7,0.8l-4.4-3.9c-0.9-0.8-1-2.1-0.2-3c0.8-0.9,2.1-1,3-0.2l2.5,2.2
				l-0.6,0.6l16.5,14.5l0.6-0.6l2.5,2.2c0.9,0.8,1,2.1,0.2,3c-0.8,0.9-2.1,1-3,0.2l-4.4-3.9l0.7-0.8l4.4,3.9
				c0.4,0.4,1.1,0.4,1.5-0.1c0.4-0.4,0.4-1.1-0.1-1.5l-21.5-19c-0.4-0.4-1.1-0.4-1.5,0.1C43.8,148.9,43.8,149.5,44.3,149.9z"/>
			<path id="XMLID_7_" class="st1" d="M57,173.8l-16.4-14.5c-0.2-0.2-0.6-0.2-0.8,0c-0.2,0.2-0.2,0.6,0,0.8l16.4,14.5
				c0.2,0.2,0.6,0.2,0.8,0C57.3,174.3,57.3,174,57,173.8z M42.8,160.5l12.7,11.2l0.4-0.4l1.9,1.7c0.7,0.6,0.7,1.6,0.2,2.3
				c-0.6,0.7-1.6,0.7-2.3,0.2l-16.4-14.5c-0.7-0.6-0.7-1.6-0.2-2.3c0.6-0.7,1.6-0.7,2.3-0.2l1.9,1.7L42.8,160.5z"/>
		</g>
		<g id="XMLID_6_">
		</g>
	</g>
</g>
</svg>
