<?xml version="1.0" encoding="utf-8"?>
<!-- Generator: Adobe Illustrator 19.0.0, SVG Export Plug-In . SVG Version: 6.00 Build 0)  -->
<svg version="1.1" xmlns="http://www.w3.org/2000/svg" xmlns:xlink="http://www.w3.org/1999/xlink" x="0px" y="0px"
	 viewBox="0 0 200 200" style="enable-background:new 0 0 200 200;" xml:space="preserve">
<style type="text/css">
	.st0{fill:#103F3A;}
	.st1{fill:#F9F9F9;}
	.st2{fill:none;stroke:#F9F9F9;stroke-width:0.8504;stroke-miterlimit:10;}
	.st3{fill:none;stroke:#F9F9F9;stroke-width:0.5669;stroke-miterlimit:10;}
</style>
<g id="Layer_1">
	<circle id="XMLID_1_" class="st0" cx="99.7" cy="100.3" r="99.7"/>
</g>
<g id="Layer_2">
	<g id="XMLID_471_">
		<g id="XMLID_2_">
			<g id="XMLID_5_">
				<polygon id="XMLID_64_" class="st1" points="48.3,60.9 49.4,69.8 46.6,69.8 47.7,60.9 				"/>
				<path id="XMLID_63_" class="st1" d="M164.9,130.1c2.7,9.2-10.7,20.6-11.8,21.5c-1,1.3-19.1,22.7-48.5,11.8
					c-20.2-7.6-27,0-33.1,6.7c-2.8,3-5.4,5.9-9,6.8c-0.5,0.1-0.9,0.2-1.4,0.2c-1.2,0-2.3-0.4-3.4-1.1C50,170.7,47.1,147,47,146
					l1.3-0.2c0,0.2,3,24.1,10.3,29.2c1.2,0.8,2.4,1.1,3.7,0.8c3.2-0.8,5.6-3.4,8.3-6.5c6-6.6,13.5-14.9,34.5-7.1
					c15.3,5.7,27.3,2.3,34.6-1.6c8-4.2,12.4-9.8,12.5-9.8l0.1-0.1c0.1-0.1,14-11.6,11.5-20.3c-1.4-4.7-7.3-7.8-17.6-9.2V120
					C157.1,121.5,163.4,124.9,164.9,130.1z"/>
				<path id="XMLID_60_" class="st1" d="M146.1,121.3v15.3c0,3.8-3.1,7-7,7H91.5c-3.8,0-7-3.1-7-7v-22.3c0-3.8,3.1-7,7-7h47.7
					c3.8,0,7,3.1,7,7v5.8c-0.2,0-0.4-0.1-0.6-0.1l-0.2,1.3C145.6,121.2,145.9,121.3,146.1,121.3z M144.8,136.6v-22.3
					c0-3.1-2.6-5.7-5.7-5.7H91.5c-3.1,0-5.7,2.6-5.7,5.7v22.3c0,3.1,2.6,5.7,5.7,5.7h47.7C142.3,142.3,144.8,139.7,144.8,136.6z"/>
				<path id="XMLID_59_" class="st1" d="M146.1,120v1.3c-0.2,0-0.5-0.1-0.7-0.1l0.2-1.3C145.7,120,145.9,120,146.1,120z"/>
				<rect id="XMLID_58_" x="139.9" y="124.2" class="st1" width="0.7" height="5.3"/>
				<path id="XMLID_54_" class="st1" d="M140.3,118.4l-0.7,0c-0.1-2.2-0.7-3.9-1.9-5c-2-1.8-4.8-1.7-4.8-1.7l0-0.7
					c0.1,0,3.1-0.1,5.3,1.9C139.5,114.1,140.2,116,140.3,118.4z"/>
				<path id="XMLID_51_" class="st1" d="M134.1,115.8v7.4h-20.8v-7.4H134.1z M132.8,121.9V117h-18.2v4.9H132.8z"/>
				<path id="XMLID_48_" class="st1" d="M118.4,134c1.5,0,2.8,1.2,2.8,2.8c0,1.5-1.2,2.8-2.8,2.8c-1.5,0-2.8-1.2-2.8-2.8
					C115.6,135.3,116.9,134,118.4,134z M119.9,136.8c0-0.8-0.7-1.5-1.5-1.5c-0.8,0-1.5,0.7-1.5,1.5c0,0.8,0.7,1.5,1.5,1.5
					C119.2,138.2,119.9,137.6,119.9,136.8z"/>
				<path id="XMLID_47_" class="st1" d="M118.4,135.3c0.8,0,1.5,0.7,1.5,1.5c0,0.8-0.7,1.5-1.5,1.5c-0.8,0-1.5-0.7-1.5-1.5
					C116.9,135.9,117.6,135.3,118.4,135.3z"/>
				<path id="XMLID_44_" class="st1" d="M111.8,134c1.5,0,2.8,1.2,2.8,2.8c0,1.5-1.2,2.8-2.8,2.8s-2.8-1.2-2.8-2.8
					C109.1,135.3,110.3,134,111.8,134z M113.3,136.8c0-0.8-0.7-1.5-1.5-1.5s-1.5,0.7-1.5,1.5c0,0.8,0.7,1.5,1.5,1.5
					S113.3,137.6,113.3,136.8z"/>
				<path id="XMLID_43_" class="st1" d="M111.8,135.3c0.8,0,1.5,0.7,1.5,1.5c0,0.8-0.7,1.5-1.5,1.5s-1.5-0.7-1.5-1.5
					C110.3,135.9,111,135.3,111.8,135.3z"/>
				<path id="XMLID_40_" class="st1" d="M107.6,115.1v10.9H89.4v-10.9H107.6z M106.3,124.8v-8.4H90.7v8.4H106.3z"/>
				<path id="XMLID_37_" class="st1" d="M104.8,134c1.5,0,2.8,1.2,2.8,2.8c0,1.5-1.2,2.8-2.8,2.8s-2.8-1.2-2.8-2.8
					C102.1,135.3,103.3,134,104.8,134z M106.3,136.8c0-0.8-0.7-1.5-1.5-1.5s-1.5,0.7-1.5,1.5c0,0.8,0.7,1.5,1.5,1.5
					S106.3,137.6,106.3,136.8z"/>
				<path id="XMLID_36_" class="st1" d="M104.8,135.3c0.8,0,1.5,0.7,1.5,1.5c0,0.8-0.7,1.5-1.5,1.5s-1.5-0.7-1.5-1.5
					C103.4,135.9,104,135.3,104.8,135.3z"/>
				<path id="XMLID_33_" class="st1" d="M61.8,51.4L60.7,53l0.1,2L59,54l-2.1,0l1.1-1.7l-0.1-2l1.8,1.1L61.8,51.4z M60.1,52.9l0.6-1
					h-1.2l-1.1-0.6l0.1,1.1l-0.6,1l1.2,0l1,0.6L60.1,52.9z"/>
				<polygon id="XMLID_32_" class="st1" points="60.7,51.9 60.1,52.9 60.2,54 59.1,53.4 57.9,53.4 58.5,52.5 58.5,51.3 59.5,51.9 
									"/>
				<path id="XMLID_29_" class="st1" d="M59.5,39.8L58,42.3l0.1,3l-2.7-1.6l-3.1,0l1.6-2.5l-0.1-3l2.7,1.6L59.5,39.8z M57.4,42.1
					l1.1-1.8l-2.2,0l-1.9-1.1l0.1,2.1l-1.1,1.8l2.2,0l1.9,1.1L57.4,42.1z"/>
				<polygon id="XMLID_28_" class="st1" points="58.5,40.3 57.4,42.1 57.5,44.2 55.6,43.1 53.3,43.1 54.5,41.3 54.4,39.2 56.3,40.4 
									"/>
				<polygon id="XMLID_27_" class="st1" points="49.5,60.2 53.4,91 51.5,145.9 50.2,145.9 50.2,145.7 50.9,145.7 50.9,144.5 
					50.3,144.5 52.2,91.7 52.8,91.7 52.8,90.4 52.1,90.4 49.6,71.1 50.2,71.1 50.2,69.8 49.4,69.8 48.3,60.9 47.7,60.9 46.6,69.8 
					45.9,69.8 45.9,71.1 46.4,71.1 43.9,90.4 43.2,90.4 43.2,91.7 43.9,91.7 45.8,144.5 45.2,144.5 45.2,145.7 45.8,145.7 
					45.8,145.9 44.6,145.9 42.6,91.1 46.5,60.2 47.8,60.4 47.9,59.7 48.1,59.7 48.2,60.4 				"/>
				<polygon id="XMLID_26_" class="st1" points="52.8,90.4 52.8,91.7 52.2,91.7 52.2,91.1 52.1,90.4 				"/>
				<polygon id="XMLID_25_" class="st1" points="52.1,90.4 52.2,91.1 52.2,91.7 43.9,91.7 43.8,91.1 43.9,90.4 				"/>
				<polygon id="XMLID_24_" class="st1" points="52.2,91.7 50.3,144.5 45.8,144.5 43.9,91.7 				"/>
				<polygon id="XMLID_23_" class="st1" points="50.9,144.5 50.9,145.7 50.2,145.7 50.3,144.5 				"/>
				<polygon id="XMLID_22_" class="st1" points="50.3,144.5 50.2,145.7 45.8,145.7 45.8,144.5 				"/>
				<polygon id="XMLID_21_" class="st1" points="50.2,69.8 50.2,71.1 49.6,71.1 49.4,69.8 				"/>
				<polygon id="XMLID_20_" class="st1" points="49.4,69.8 49.6,71.1 46.4,71.1 46.6,69.8 				"/>
				<polygon id="XMLID_19_" class="st1" points="48.6,53.1 49.5,60.2 49.4,59.7 48.1,59.7 48,58.6 48.6,53.3 48,53.2 				"/>
				<polygon id="XMLID_18_" class="st1" points="49.4,59.7 49.5,60.2 48.2,60.4 48.1,59.7 				"/>
				<polygon id="XMLID_17_" class="st1" points="48.6,53.3 48,58.6 47.4,53.3 48,53.2 				"/>
				<polygon id="XMLID_16_" class="st1" points="48,58.6 48.1,59.7 47.9,59.7 				"/>
				<polygon id="XMLID_15_" class="st1" points="48,53.2 47.4,53.3 48,58.6 47.9,59.7 46.6,59.7 46.5,60.2 47.4,53.1 				"/>
				<polygon id="XMLID_14_" class="st1" points="47.9,59.7 47.8,60.4 46.5,60.2 46.6,59.7 				"/>
				<polygon id="XMLID_13_" class="st1" points="46.6,69.8 46.4,71.1 45.9,71.1 45.9,69.8 				"/>
				<path id="XMLID_10_" class="st1" d="M45.9,48.4l-0.9,1.4l0.1,1.6l-1.5-0.9l-1.7,0l0.9-1.4l-0.1-1.6l1.5,0.9L45.9,48.4z
					 M44.5,49.6l0.4-0.7h-0.8l-0.7-0.4l0,0.8L42.9,50l0.8,0l0.7,0.4L44.5,49.6z"/>
				<polygon id="XMLID_9_" class="st1" points="45.8,144.5 45.8,145.7 45.2,145.7 45.2,144.5 				"/>
				<polygon id="XMLID_8_" class="st1" points="44.9,49 44.5,49.6 44.5,50.4 43.8,50 42.9,50 43.4,49.3 43.3,48.6 44.1,49 				"/>
				<polygon id="XMLID_7_" class="st1" points="43.9,90.4 43.8,91.1 43.9,91.7 43.2,91.7 43.2,90.4 				"/>
			</g>
			<g id="XMLID_6_">
				<path id="XMLID_57_" class="st2" d="M146.1,121.3v15.3c0,3.8-3.1,7-7,7H91.5c-3.8,0-7-3.1-7-7v-22.3c0-3.8,3.1-7,7-7h47.7
					c3.8,0,7,3.1,7,7v5.8"/>
				<path id="XMLID_56_" class="st2" d="M91.5,108.6c-3.1,0-5.7,2.6-5.7,5.7v22.3c0,3.1,2.6,5.7,5.7,5.7h47.7c3.1,0,5.7-2.6,5.7-5.7
					v-22.3c0-3.1-2.6-5.7-5.7-5.7H91.5z"/>
				<path id="XMLID_55_" class="st3" d="M146.1,120c11,1.5,17.3,4.9,18.8,10.1c2.7,9.2-10.7,20.6-11.8,21.5
					c-1,1.3-19.1,22.7-48.5,11.8c-20.2-7.6-27,0-33.1,6.7c-2.8,3-5.4,5.9-9,6.8c-0.5,0.1-0.9,0.2-1.4,0.2c-1.2,0-2.3-0.4-3.4-1.1
					C50,170.7,47.1,147,47,146l1.3-0.2c0,0.2,3,24.1,10.3,29.2c1.2,0.8,2.4,1.1,3.7,0.8c3.2-0.8,5.6-3.4,8.3-6.5
					c6-6.6,13.5-14.9,34.5-7.1c15.3,5.7,27.3,2.3,34.6-1.6c8-4.2,12.4-9.8,12.5-9.8l0.1-0.1c0.1-0.1,14-11.6,11.5-20.3
					c-1.4-4.7-7.3-7.8-17.6-9.2c-0.2,0-0.5-0.1-0.7-0.1l0.2-1.3C145.7,120,145.9,120,146.1,120z"/>
			</g>
		</g>
	</g>
</g>
</svg>
